<svg width="250" height="44" viewBox="0 0 250 44" fill="none" xmlns="http://www.w3.org/2000/svg">
<path d="M21.5625 0C9.65386 0 0 9.87484 0 22C0 34.1252 9.65386 44 21.5625 44H176.652C184.155 44 190.763 40.0798 194.626 34.1465C197.172 31.2314 199.077 29.3784 202.5 29.2771C206.19 29.3863 208.116 31.531 210.983 34.8475C211.903 36.1364 212.957 37.3194 214.125 38.3753C214.178 38.4319 214.232 38.4886 214.286 38.5455L214.284 38.5181C218.072 41.8758 223.021 43.9091 228.438 43.9091C240.346 43.9091 250 34.0797 250 21.9545C250 9.82938 240.346 0 228.438 0C221.597 0 215.5 3.24349 211.55 8.30246C209.203 11.1329 206.31 14.4628 202.5 14.6298C199.027 14.4776 196.316 11.6973 194.086 9.06285C190.165 3.57444 183.817 0 176.652 0H21.5625Z" fill="white"/>
<path d="M58.184 27V15.672H63.144C63.6667 15.672 64.1413 15.7253 64.568 15.832C65.0053 15.928 65.384 16.088 65.704 16.312C66.024 16.536 66.2693 16.8347 66.44 17.208C66.6213 17.5813 66.712 18.056 66.712 18.632C66.712 19.1013 66.6053 19.5387 66.392 19.944C66.1787 20.3493 65.864 20.6587 65.448 20.872C66.0027 21.0533 66.44 21.368 66.76 21.816C67.08 22.2533 67.24 22.8347 67.24 23.56C67.24 24.2107 67.1173 24.76 66.872 25.208C66.6267 25.6453 66.2907 25.9973 65.864 26.264C65.4373 26.5307 64.9413 26.7227 64.376 26.84C63.8107 26.9467 63.208 27 62.568 27H58.184ZM60.472 24.888H62.84C63.128 24.888 63.3947 24.8667 63.64 24.824C63.896 24.7813 64.12 24.712 64.312 24.616C64.504 24.5093 64.6533 24.3653 64.76 24.184C64.8773 24.0027 64.936 23.7787 64.936 23.512C64.936 23.2667 64.888 23.064 64.792 22.904C64.7067 22.7333 64.5787 22.5947 64.408 22.488C64.248 22.3813 64.056 22.3067 63.832 22.264C63.6187 22.2213 63.3787 22.2 63.112 22.2H60.472V24.888ZM60.472 20.296H62.568C62.856 20.296 63.1173 20.2693 63.352 20.216C63.5867 20.1627 63.784 20.0773 63.944 19.96C64.104 19.8427 64.2267 19.6987 64.312 19.528C64.3973 19.3467 64.44 19.1387 64.44 18.904C64.4507 18.584 64.3813 18.3493 64.232 18.2C64.0827 18.04 63.88 17.9333 63.624 17.88C63.368 17.816 63.08 17.784 62.76 17.784H60.472V20.296ZM72.6441 27.112C71.7908 27.112 71.0441 26.9413 70.4041 26.6C69.7641 26.248 69.2681 25.752 68.9161 25.112C68.5641 24.4613 68.3881 23.6933 68.3881 22.808C68.3881 21.9013 68.5641 21.1227 68.9161 20.472C69.2788 19.8107 69.7801 19.304 70.4201 18.952C71.0601 18.6 71.7961 18.424 72.6281 18.424C73.4815 18.424 74.2228 18.6053 74.8521 18.968C75.4815 19.3307 75.9721 19.8373 76.3241 20.488C76.6761 21.1387 76.8521 21.9173 76.8521 22.824C76.8521 23.7093 76.6761 24.4773 76.3241 25.128C75.9828 25.768 75.4975 26.2587 74.8681 26.6C74.2495 26.9413 73.5081 27.112 72.6441 27.112ZM72.6121 25.064C73.1028 25.064 73.4975 24.9573 73.7961 24.744C74.0948 24.5307 74.3081 24.2533 74.4361 23.912C74.5748 23.56 74.6441 23.192 74.6441 22.808C74.6441 22.424 74.5748 22.056 74.4361 21.704C74.3081 21.352 74.0948 21.064 73.7961 20.84C73.5081 20.6053 73.1135 20.488 72.6121 20.488C72.1321 20.488 71.7428 20.6053 71.4441 20.84C71.1455 21.064 70.9268 21.352 70.7881 21.704C70.6601 22.056 70.5961 22.424 70.5961 22.808C70.5961 23.2027 70.6601 23.5707 70.7881 23.912C70.9268 24.2533 71.1455 24.5307 71.4441 24.744C71.7428 24.9573 72.1321 25.064 72.6121 25.064ZM82.2223 27.112C81.3689 27.112 80.6223 26.9413 79.9823 26.6C79.3423 26.248 78.8463 25.752 78.4943 25.112C78.1423 24.4613 77.9663 23.6933 77.9663 22.808C77.9663 21.9013 78.1423 21.1227 78.4943 20.472C78.8569 19.8107 79.3583 19.304 79.9983 18.952C80.6383 18.6 81.3743 18.424 82.2063 18.424C83.0596 18.424 83.8009 18.6053 84.4303 18.968C85.0596 19.3307 85.5503 19.8373 85.9023 20.488C86.2543 21.1387 86.4303 21.9173 86.4303 22.824C86.4303 23.7093 86.2543 24.4773 85.9023 25.128C85.5609 25.768 85.0756 26.2587 84.4463 26.6C83.8276 26.9413 83.0863 27.112 82.2223 27.112ZM82.1903 25.064C82.6809 25.064 83.0756 24.9573 83.3743 24.744C83.6729 24.5307 83.8863 24.2533 84.0143 23.912C84.1529 23.56 84.2223 23.192 84.2223 22.808C84.2223 22.424 84.1529 22.056 84.0143 21.704C83.8863 21.352 83.6729 21.064 83.3743 20.84C83.0863 20.6053 82.6916 20.488 82.1903 20.488C81.7103 20.488 81.3209 20.6053 81.0223 20.84C80.7236 21.064 80.5049 21.352 80.3663 21.704C80.2383 22.056 80.1743 22.424 80.1743 22.808C80.1743 23.2027 80.2383 23.5707 80.3663 23.912C80.5049 24.2533 80.7236 24.5307 81.0223 24.744C81.3209 24.9573 81.7103 25.064 82.1903 25.064ZM87.8644 27V15.672H90.1044V21.8H91.2084L93.2724 18.568H95.7844L93.0964 22.584L96.0084 27H93.4164L91.3044 23.8H90.1044V27H87.8644ZM101.318 27V18.568H103.414L103.526 19.544C103.76 19.256 104.027 19.032 104.326 18.872C104.635 18.7013 104.944 18.584 105.254 18.52C105.574 18.456 105.862 18.424 106.118 18.424C106.928 18.424 107.558 18.6 108.006 18.952C108.464 19.304 108.79 19.7787 108.982 20.376C109.184 20.9627 109.286 21.6187 109.286 22.344V27H107.046V22.632C107.046 22.376 107.024 22.12 106.982 21.864C106.939 21.608 106.859 21.3733 106.742 21.16C106.635 20.9467 106.48 20.776 106.278 20.648C106.075 20.52 105.808 20.456 105.478 20.456C105.051 20.456 104.694 20.5627 104.406 20.776C104.118 20.9893 103.904 21.2773 103.766 21.64C103.627 22.0027 103.558 22.4027 103.558 22.84V27H101.318ZM114.941 27.112C114.088 27.112 113.341 26.9413 112.701 26.6C112.061 26.248 111.565 25.752 111.213 25.112C110.861 24.4613 110.685 23.6933 110.685 22.808C110.685 21.9013 110.861 21.1227 111.213 20.472C111.576 19.8107 112.077 19.304 112.717 18.952C113.357 18.6 114.093 18.424 114.925 18.424C115.778 18.424 116.52 18.6053 117.149 18.968C117.778 19.3307 118.269 19.8373 118.621 20.488C118.973 21.1387 119.149 21.9173 119.149 22.824C119.149 23.7093 118.973 24.4773 118.621 25.128C118.28 25.768 117.794 26.2587 117.165 26.6C116.546 26.9413 115.805 27.112 114.941 27.112ZM114.909 25.064C115.4 25.064 115.794 24.9573 116.093 24.744C116.392 24.5307 116.605 24.2533 116.733 23.912C116.872 23.56 116.941 23.192 116.941 22.808C116.941 22.424 116.872 22.056 116.733 21.704C116.605 21.352 116.392 21.064 116.093 20.84C115.805 20.6053 115.41 20.488 114.909 20.488C114.429 20.488 114.04 20.6053 113.741 20.84C113.442 21.064 113.224 21.352 113.085 21.704C112.957 22.056 112.893 22.424 112.893 22.808C112.893 23.2027 112.957 23.5707 113.085 23.912C113.224 24.2533 113.442 24.5307 113.741 24.744C114.04 24.9573 114.429 25.064 114.909 25.064ZM122.391 27L119.735 18.568H122.183L123.751 24.44L125.415 18.568H127.927L129.591 24.44L131.127 18.568H133.543L130.887 27H128.311L126.631 21.304L124.967 27H122.391Z" fill="#010101"/>
<path d="M220 20.5C219.172 20.5 218.5 21.1716 218.5 22C218.5 22.8284 219.172 23.5 220 23.5V20.5ZM238.503 23.0607C239.089 22.4749 239.089 21.5251 238.503 20.9393L228.957 11.3934C228.372 10.8076 227.422 10.8076 226.836 11.3934C226.25 11.9792 226.25 12.9289 226.836 13.5147L235.321 22L226.836 30.4853C226.25 31.0711 226.25 32.0208 226.836 32.6066C227.422 33.1924 228.372 33.1924 228.957 32.6066L238.503 23.0607ZM220 22V23.5H237.443V22V20.5H220V22Z" fill="black"/>
</svg>
